<?xml version="1.0" encoding="utf-8"?>
<svg xmlns="http://www.w3.org/2000/svg" xmlns:svg="http://www.w3.org/2000/svg" version="1.1" viewBox="0 0 1400 340">
	<title>The titlepage for the Standard Ebooks edition of Black Beauty, by Anna Sewell</title>
	<g aria-label="BLACK BEAUTY">
		<path d="M 309.69298,52.807016 V 130 h 29.28655 c 16,0 25.26315,-8.79532 25.26315,-21.52047 0,-12.444443 -6.8304,-17.777776 -16.46783,-19.461987 6.54971,-3.368421 9.63743,-9.450292 9.63743,-16.561404 0,-14.690058 -10.47954,-19.649123 -23.76609,-19.649123 z m 17.59064,30.222223 V 66.374268 h 1.40351 c 7.67251,0 11.69591,2.339181 11.69591,7.859649 0,6.456141 -4.11696,8.795322 -11.69591,8.795322 z m 0,33.403511 V 98.187134 h 5.52047 c 8.32748,0 12.91228,2.526316 12.91228,9.637426 0,6.08187 -4.5848,8.60819 -12.91228,8.60819 z"/>
		<path d="M 394.60087,52.807016 H 377.01023 V 130 h 44.16374 v -15.4386 h -26.5731 z"/>
		<path d="m 475.49122,52.807016 h -16.2807 L 428.05262,130 h 18.90059 l 5.7076,-15.4386 h 29.38012 L 487.74853,130 h 18.90059 z m 0.56141,46.31579 h -17.40351 l 8.60818,-22.45614 h 0.18714 z"/>
		<path d="m 552.72075,114.09357 c -17.68421,0 -25.45029,-12.35088 -25.45029,-22.736846 0,-10.292397 7.76608,-22.643275 25.45029,-22.643275 8.98246,0 15.1579,4.77193 15.1579,4.77193 l 7.48538,-14.97076 c 0,0 -8.60819,-7.111112 -25.35673,-7.111112 -21.89474,0 -41.82456,17.964913 -41.82456,40.140352 0,22.081871 20.02339,39.859651 41.82456,39.859651 16.74854,0 25.35673,-7.11111 25.35673,-7.11111 l -7.48538,-14.97076 c 0,0 -6.17544,4.77193 -15.1579,4.77193 z"/>
		<path d="M 657.45469,130 621.52486,89.391812 652.58919,52.807016 H 631.25586 L 604.77633,84.33918 V 52.807016 H 587.18568 V 130 h 17.59065 V 97.251461 L 633.22077,130 Z"/>
		<path d="M 696.41813,52.807016 V 130 h 29.28655 c 16.00001,0 25.26316,-8.79532 25.26316,-21.52047 0,-12.444443 -6.83041,-17.777776 -16.46783,-19.461987 6.5497,-3.368421 9.63742,-9.450292 9.63742,-16.561404 0,-14.690058 -10.47953,-19.649123 -23.76608,-19.649123 z m 17.59065,30.222223 V 66.374268 h 1.40351 c 7.67251,0 11.6959,2.339181 11.6959,7.859649 0,6.456141 -4.11696,8.795322 -11.6959,8.795322 z m 0,33.403511 V 98.187134 h 5.52047 c 8.32748,0 12.91228,2.526316 12.91228,9.637426 0,6.08187 -4.5848,8.60819 -12.91228,8.60819 z"/>
		<path d="M 807.89911,52.807016 H 763.73536 V 130 h 44.16375 v -15.4386 h -26.5731 V 99.029239 H 806.7763 V 83.590642 H 781.32601 V 68.245613 h 26.5731 z"/>
		<path d="M 862.7646,52.807016 H 846.4839 L 815.326,130 h 18.90059 l 5.7076,-15.4386 h 29.38012 L 875.02191,130 h 18.90058 z m 0.5614,46.31579 h -17.40351 l 8.60819,-22.45614 h 0.18713 z"/>
		<path d="m 961.16372,52.807016 h -17.59064 v 44.63158 c 0,12.912284 -3.92982,16.654974 -12.53801,16.654974 -8.60819,0 -12.53801,-3.74269 -12.53801,-16.654974 v -44.63158 h -17.59065 v 49.777774 c 0,19.08772 10.47953,28.81872 30.12866,28.81872 19.64912,0 30.12865,-9.731 30.12865,-28.81872 z"/>
		<path d="m 967.03506,68.245613 h 18.33918 V 130 h 17.59066 V 68.245613 h 18.3392 V 52.807016 h -54.26904 z"/>
		<path d="m 1024.2178,52.807016 28.4445,42.5731 V 130 h 17.5906 V 95.380116 l 28.4445,-42.5731 h -21.1462 l -16.0936,24.701755 -16.0936,-24.701755 z"/>
	</g>
	<g aria-label="ANNA SEWELL">
		<path d="M 443.53728,232.10526 H 431.32676 L 407.95834,290 h 14.17543 l 4.28071,-11.57895 h 22.03508 L 452.73027,290 h 14.17543 z m 0.42106,34.73685 H 430.9057 L 437.36184,250 h 0.14036 z"/>
		<path d="m 487.28838,254.07018 h 0.14035 L 510.44628,290 h 13.19298 v -57.89474 h -13.19298 v 35.92983 h -0.14036 L 487.28838,232.10526 H 474.0954 V 290 h 13.19298 z"/>
		<path d="m 550.26536,254.07018 h 0.14035 L 573.42325,290 h 13.19298 v -57.89474 h -13.19298 v 35.92983 H 573.2829 L 550.26536,232.10526 H 537.07237 V 290 h 13.19299 z"/>
		<path d="M 629.45286,232.10526 H 617.24233 L 593.87391,290 h 14.17544 l 4.2807,-11.57895 h 22.03509 L 638.64584,290 h 14.17544 z m 0.42105,34.73685 H 616.82128 L 623.27742,250 h 0.14035 z"/>
		<path d="m 704.1623,231.05263 c -9.33334,0 -18.87719,6.8772 -18.87719,17.68421 0,6.03509 4.07017,11.4386 11.01754,14.8772 6.87719,3.43859 13.05263,5.33333 13.05263,9.54385 0,5.40351 -5.47368,5.68422 -8.35088,5.68422 -6.45614,0 -14.17544,-6.52632 -14.17544,-6.52632 l -6.59649,11.08772 c 0,0 8.21053,7.64912 21.75439,7.64912 11.29824,0 21.82456,-4.8421 21.82456,-18.66666 0,-7.57895 -7.08772,-13.05264 -13.54386,-15.78948 -6.59649,-2.80702 -12.07017,-5.12281 -12.07017,-8.35088 0,-3.15789 2.38596,-5.19298 6.87719,-5.19298 5.96491,0 11.7193,4 11.7193,4 l 5.33333,-10.52631 c 0,0 -7.4386,-5.47369 -17.96491,-5.47369 z"/>
		<path d="M 768.10088,232.10526 H 734.97807 V 290 h 33.12281 v -11.57895 h -19.92982 v -11.64912 h 19.08772 v -11.57895 h -19.08772 v -11.50877 h 19.92982 z"/>
		<path d="m 825.10637,290 h 14.59649 l 16.49123,-57.89474 H 841.5976 l -9.89474,39.7193 h -0.35088 l -10.52631,-39.7193 h -9.96491 l -10.52632,39.7193 h -0.35088 l -9.89473,-39.7193 H 775.42216 L 791.91339,290 h 14.66667 l 9.26315,-32.49123 z"/>
		<path d="m 897.48137,232.10526 h -33.1228 V 290 h 33.1228 v -11.57895 h -19.92982 v -11.64912 h 19.08772 v -11.57895 h -19.08772 v -11.50877 h 19.92982 z"/>
		<path d="M 923.25879,232.10526 H 910.06581 V 290 h 33.12281 v -11.57895 h -19.92983 z"/>
		<path d="M 967.86954,232.10526 H 954.67656 V 290 h 33.12281 v -11.57895 h -19.92983 z"/>
	</g>
</svg>
